# xmcd CD database file
#
# Track frame offsets:
#	150
#	22520
#	41698
#	55103
#	80978
#	98280
#	110390
#	127108
#	144040
#	157380
#	179165
#	190315
#	203938
#
# Disc length: 3042 seconds
#
# Revision: 0
# Processed by: cddbd v1.5.2PL0 Copyright (c) Steve Scherf et al.
# Submitted via: CDex 1.70beta1
#
DISCID=b10be00d
DTITLE=John Petters Swing Band With George Chisholm, Maxine Daniels - Swinging Down Memory Lane
DYEAR=1900
DGENRE=Jazz
TTITLE0=Riverboat Shuffle
TTITLE1=Happiness Is Just A thing Called Joe
TTITLE2=Do Nothing Till You Hear From Me
TTITLE3=I've Got My Love To Keep Me Warm
TTITLE4=Just In Time
TTITLE5=I'm In The Mood For Love
TTITLE6=Zing Went The Strings Of My Heart
TTITLE7=I'v Got A Right To Sing The Blues
TTITLE8=Alexanders Ragtime Band
TTITLE9=The More I See You
TTITLE10=Anything Goes
TTITLE11=Stardust
TTITLE12=Old Man River
EXTD=
EXTT0=
EXTT1=
EXTT2=
EXTT3=
EXTT4=
EXTT5=
EXTT6=
EXTT7=
EXTT8=
EXTT9=
EXTT10=
EXTT11=
EXTT12=
PLAYORDER=
